<svg width="64" height="64" viewBox="0 0 64 64" fill="none" xmlns="http://www.w3.org/2000/svg">
  <rect width="64" height="64" rx="16" fill="#19B55A"/>
  <path d="M17 47L20 37C18.8 34.8 18 31.9 18 29C18 20.2 25.2 13 34 13C42.8 13 50 20.2 50 29C50 37.8 42.8 45 34 45C31.3 45 28.7 44.3 26.5 43L17 47Z" fill="white" fill-opacity="0.95"/>
  <path d="M40.1 34.1C39.7 34.4 37.8 35.4 37.3 35.6C36.8 35.8 36.4 35.9 36 35.3C35.6 34.7 34.3 33.3 33.1 32.3C32.2 31.5 31.3 30.6 30.8 29.7C30.4 29 30.7 28.6 31.1 28.2C31.4 27.9 31.8 27.5 32 27.1C32.2 26.7 32.3 26.4 32.5 26C32.7 25.6 32.6 25.2 32.5 24.9C32.3 24.6 31 21.5 30.5 20.3C30.1 19.1 29.7 19.2 29.4 19.2H28.4C28 19.2 27.4 19.4 27 19.9C26.6 20.4 25.6 21.4 25.6 23.5C25.6 25.6 27 27.6 27.2 27.9C27.4 28.2 30.1 32.4 34.2 34.1C35.2 34.5 36 34.8 36.6 35C37.6 35.3 38.6 35.2 39.4 35.1C40.3 34.9 42.2 33.9 42.6 33.1C43 32.3 43 31.6 42.9 31.4C42.8 31.2 42.5 31.1 42.1 30.9C41.7 30.7 40.9 30.3 40.1 34.1Z" fill="#19B55A"/>
</svg>
