<svg xmlns="http://www.w3.org/2000/svg" width="128" height="128" viewBox="0 0 128 128" fill="none">
  <defs>
    <linearGradient id="g" x1="18" y1="12" x2="112" y2="116" gradientUnits="userSpaceOnUse">
      <stop offset="0" stop-color="#3EE56F"/>
      <stop offset="1" stop-color="#00A447"/>
    </linearGradient>
  </defs>
  <rect x="6" y="6" width="116" height="116" rx="28" fill="url(#g)"/>
  <path d="M64 31C47.74 31 34.56 44.03 34.56 60.09C34.56 65.93 36.29 71.37 39.29 75.95L35.42 90.74L50.88 86.75C54.92 88.87 59.53 90.09 64.44 90.09C80.7 90.09 93.88 77.06 93.88 61C93.88 44.94 80.7 31.91 64.44 31.91L64 31Z" fill="white" fill-opacity="0.95"/>
  <path d="M53.77 49.58C53.11 48.11 52.4 48.08 51.77 48.05C51.25 48.03 50.65 48.03 50.05 48.03C49.45 48.03 48.47 48.26 47.65 49.14C46.83 50.02 44.51 52.18 44.51 56.58C44.51 60.98 47.72 65.23 48.17 65.84C48.62 66.45 54.25 75.41 62.97 78.84C70.22 81.69 71.7 81.12 73.28 80.97C74.86 80.82 78.38 78.81 79.05 76.95C79.72 75.09 79.72 73.5 79.53 73.19C79.35 72.89 78.86 72.73 78.11 72.34C77.36 71.95 73.67 70.12 72.98 69.87C72.29 69.63 71.78 69.49 71.27 70.27C70.76 71.05 69.3 72.77 68.86 73.3C68.41 73.83 67.97 73.9 67.22 73.51C66.47 73.12 64.04 72.31 61.16 69.74C58.93 67.76 57.42 65.31 56.98 64.53C56.53 63.75 56.93 63.32 57.31 62.93C57.65 62.59 58.06 62.03 58.44 61.56C58.81 61.09 58.94 60.78 59.19 60.24C59.43 59.69 59.32 59.22 59.13 58.83C58.94 58.44 57.57 54.83 56.91 53.36L53.77 49.58Z" fill="#00A447"/>
</svg>
